<?xml version="1.0" encoding="utf-8"?>
<!-- Generator: Adobe Illustrator 16.2.0, SVG Export Plug-In . SVG Version: 6.00 Build 0)  -->
<!DOCTYPE svg PUBLIC "-//W3C//DTD SVG 1.1//EN" "http://www.w3.org/Graphics/SVG/1.1/DTD/svg11.dtd">
<svg version="1.1" id="Layer_1" xmlns="http://www.w3.org/2000/svg" xmlns:xlink="http://www.w3.org/1999/xlink" x="0px" y="0px"
	 width="100px" height="100px" viewBox="0 0 100 100" enable-background="new 0 0 100 100" xml:space="preserve">
<g>
	<g>
		<path fill-rule="evenodd" clip-rule="evenodd" fill="#662D91" d="M50.071,1.382c-26.825,0-48.573,21.538-48.573,48.104
			c0,26.565,21.749,48.104,48.573,48.104s48.574-21.538,48.574-48.104C98.645,22.919,76.896,1.382,50.071,1.382z M50.071,91.67
			c-23.434,0-42.502-18.976-42.502-42.185S26.637,7.394,50.071,7.394c23.434,0,42.502,18.882,42.502,42.091
			S73.505,91.67,50.071,91.67z M53.106,48.263V19.421c0-1.661-1.357-3.008-3.036-3.008s-3.035,1.347-3.035,3.008v30.064
			c0,0.853,0.361,1.618,0.936,2.166c0.05,0.058,0.089,0.12,0.145,0.175l15.025,14.881c1.185,1.174,3.107,1.174,4.292,0
			c1.188-1.175,1.188-3.077,0-4.251L53.106,48.263z"/>
	</g>
</g>
</svg>
