<?xml version="1.0" encoding="utf-8"?>
<!-- Generator: Adobe Illustrator 16.2.0, SVG Export Plug-In . SVG Version: 6.00 Build 0)  -->
<!DOCTYPE svg PUBLIC "-//W3C//DTD SVG 1.1//EN" "http://www.w3.org/Graphics/SVG/1.1/DTD/svg11.dtd">
<svg version="1.1" id="Layer_1" xmlns="http://www.w3.org/2000/svg" xmlns:xlink="http://www.w3.org/1999/xlink" x="0px" y="0px"
	 width="100px" height="100px" viewBox="0 0 100 100" fill="#ffffff" enable-background="new 0 0 100 100" xml:space="preserve">
	<g>
		<g>
			<path d="M95.198,22.243c-2.677-0.62-6.507,0.837-6.958,4.025c-0.855,6.057-1.712,12.114-2.566,18.171
				C80.781,35.597,72.075,29.1,62.195,26.167C48.302,22.04,33.038,24.308,20.32,31.07c-6.767,3.598-12.925,8.652-17.716,14.708
				c-1.855,2.343-2.415,5.892,0,8.152c2.058,1.923,6.012,2.505,7.994,0c1.893-2.392,3.969-4.615,6.237-6.631
				c0.503-0.451,1.025-0.879,1.536-1.314c0.063-0.054,0.113-0.097,0.161-0.138c0.024-0.018,0.046-0.033,0.08-0.058
				c0.271-0.203,0.537-0.409,0.807-0.608c1.288-0.95,2.614-1.836,3.98-2.666c1.22-0.74,2.471-1.431,3.748-2.073
				c0.601-0.3,1.206-0.589,1.813-0.867c0.117-0.053,0.391-0.17,0.562-0.243c0.29-0.119,0.581-0.239,0.873-0.351
				c2.809-1.097,5.711-1.953,8.663-2.55c0.736-0.15,1.479-0.271,2.219-0.402c0.045-0.007,0.117-0.017,0.192-0.027
				c0.263-0.033,0.526-0.066,0.792-0.093c1.495-0.162,2.997-0.255,4.499-0.278c1.521-0.026,3.042,0.019,4.555,0.139
				c0.654,0.051,1.307,0.123,1.961,0.197c0.127,0.017,0.267,0.036,0.326,0.047c0.541,0.09,1.077,0.181,1.614,0.286
				c1.518,0.3,3.02,0.68,4.499,1.138c0.781,0.244,1.555,0.511,2.32,0.8c0.25,0.095,0.499,0.195,0.749,0.294
				c-0.336-0.125,0.861,0.393,0.903,0.412c1.39,0.665,2.737,1.423,4.029,2.268c0.612,0.398,1.19,0.833,1.787,1.25
				c0.04,0.029,0.07,0.049,0.099,0.068c0.053,0.047,0.114,0.103,0.187,0.168c0.312,0.282,0.635,0.552,0.942,0.837
				c0.62,0.567,1.217,1.164,1.788,1.784c0.285,0.312,0.566,0.624,0.841,0.946c0.039,0.048,0.253,0.309,0.422,0.512
				c0.147,0.208,0.561,0.758,0.543,0.731c0.24,0.35,0.474,0.702,0.698,1.059c0.447,0.713,0.868,1.446,1.255,2.193
				c0.195,0.376,0.367,0.763,0.56,1.138c0.042,0.083,0.066,0.129,0.094,0.18c0.008,0.024,0.01,0.035,0.022,0.072
				c0.281,0.796,0.57,1.577,0.8,2.388c0.229,0.812,0.42,1.63,0.57,2.46c0.023,0.131,0.056,0.399,0.077,0.582
				c0.033,0.384,0.065,0.768,0.088,1.152c0.021,0.401,0.085,0.801,0.181,1.192c0.001,0.015-0.001,0.032,0.001,0.047
				c-4.042-2.252-8.309-4.091-12.765-5.501c-2.823-0.894-6.293,1.059-6.954,4.025c-0.698,3.128,0.924,6.132,3.946,7.09
				c1.052,0.33,7.436,2.91,7.849,3.116c0.983,0.492,1.96,1.01,2.921,1.555c1.765,0.995,3.481,2.076,5.141,3.244
				c0.455,0.315,0.901,0.639,1.349,0.969c0.011,0.009,0.737,0.563,0.835,0.631c0.789,0.63,1.558,1.288,2.319,1.956
				c1.558,1.371,3.443,2.059,5.501,1.483c1.716-0.484,3.676-2.11,3.946-4.025c2.133-15.061,4.258-30.123,6.387-45.184
				C99.565,26.362,98.428,22.994,95.198,22.243z M41.529,35.996C41.783,35.962,42.018,35.936,41.529,35.996L41.529,35.996z"/>
		</g>
	</g>
</svg>
