<?xml version="1.0" encoding="utf-8"?>
<!-- Generator: Adobe Illustrator 16.2.0, SVG Export Plug-In . SVG Version: 6.00 Build 0)  -->
<!DOCTYPE svg PUBLIC "-//W3C//DTD SVG 1.1//EN" "http://www.w3.org/Graphics/SVG/1.1/DTD/svg11.dtd">
<svg version="1.1" id="Layer_1" xmlns="http://www.w3.org/2000/svg" xmlns:xlink="http://www.w3.org/1999/xlink" x="0px" y="0px"
	 width="100px" height="100px" viewBox="0 0 100 100" enable-background="new 0 0 100 100" xml:space="preserve">
<g>
	<path fill="#662D91" d="M77.162,92.307c-0.279,0-0.561-0.059-0.824-0.178l-26.34-11.911l-26.34,11.911
		c-0.661,0.299-1.432,0.219-2.015-0.215c-0.583-0.432-0.886-1.146-0.793-1.865l3.601-27.748L4.616,41.88
		c-0.514-0.529-0.695-1.298-0.471-2c0.224-0.703,0.816-1.225,1.542-1.359l28.552-5.29l14.023-24.53
		c0.356-0.623,1.019-1.007,1.736-1.007c0.717,0,1.38,0.384,1.736,1.007l14.027,24.53l28.551,5.29
		c0.727,0.134,1.317,0.657,1.541,1.359c0.226,0.703,0.043,1.472-0.471,2L75.546,62.301l3.601,27.749
		c0.094,0.72-0.211,1.433-0.793,1.864C78.002,92.174,77.584,92.307,77.162,92.307z M49.998,74.709c0.267,0,0.534,0.057,0.782,0.169
		l22.672,10.253L70.357,61.27c-0.074-0.573,0.117-1.151,0.521-1.565l16.991-17.492l-24.471-4.533
		c-0.549-0.102-1.024-0.439-1.302-0.924L49.998,15.598L37.903,36.755c-0.277,0.485-0.753,0.823-1.302,0.924L12.13,42.212
		l16.989,17.492c0.403,0.416,0.595,0.992,0.521,1.567l-3.096,23.859l22.672-10.253C49.465,74.766,49.731,74.709,49.998,74.709z"/>
</g>
</svg>
