<?xml version="1.0" standalone="no"?>
<!DOCTYPE svg PUBLIC "-//W3C//DTD SVG 1.1//EN" "http://www.w3.org/Graphics/SVG/1.1/DTD/svg11.dtd" >
<svg xmlns="http://www.w3.org/2000/svg" xmlns:xlink="http://www.w3.org/1999/xlink" version="1.1">
<metadata></metadata>
<defs>
<font id="meloriacregular" horiz-adv-x="1619" >
<font-face units-per-em="2048" ascent="1556" descent="-492" />
<missing-glyph horiz-adv-x="555" />
<glyph horiz-adv-x="0" />
<glyph unicode="&#xd;" horiz-adv-x="354" />
<glyph unicode=" "  horiz-adv-x="555" />
<glyph unicode="&#x09;" horiz-adv-x="555" />
<glyph unicode="&#xa0;" horiz-adv-x="555" />
<glyph unicode="!" horiz-adv-x="663" d="M23 1554h618l-88 -970h-442zM61 246q0 55 21.5 105t58.5 87t86 58.5t105 21.5q55 0 104 -21.5t86 -58.5t58.5 -87t21.5 -105t-21.5 -104.5t-58.5 -85.5t-86 -57.5t-104 -21.5t-104.5 21.5t-86.5 57.5t-58.5 85.5t-21.5 104.5z" />
<glyph unicode="&#x22;" horiz-adv-x="741" d="M0 1554h342l-49 -708h-244zM399 1554h342l-49 -708h-243z" />
<glyph unicode="#" horiz-adv-x="1267" d="M23 399v219h208l54 326h-203v219h235l72 391h275l-72 -391h233l62 391h278l-63 -391h143v-219h-178l-51 -326h172v-219h-207l-63 -399h-281l72 399h-236l-59 -399h-279l68 399h-180zM512 618h225l54 326h-228z" />
<glyph unicode="$" horiz-adv-x="1048" d="M23 629h407q0 -23 10.5 -38.5t25.5 -25.5t31.5 -15t28.5 -5q43 0 67.5 24.5t24.5 46.5q0 20 -23.5 30.5t-62 18t-87 14.5t-97.5 19q-47 12 -99 32t-95 50.5t-71 75.5t-28 111q0 135 96.5 222t270.5 109v256h244v-260q156 -25 245.5 -111.5t96.5 -228.5h-396 q0 35 -19.5 58.5t-60.5 23.5q-29 0 -54 -17.5t-25 -43.5q0 -33 57 -53.5t201 -42.5q100 -16 161.5 -45t95 -68t46 -85t12.5 -97q0 -53 -20.5 -105.5t-63.5 -96.5t-111.5 -77t-164.5 -47v-260h-244v258q-104 14 -179 55t-123 95.5t-71.5 114t-25.5 108.5z" />
<glyph unicode="%" horiz-adv-x="1767" d="M23 1182q0 82 31.5 154.5t85 126t126 85t154.5 31.5t153.5 -31.5t125 -85t85 -126t31.5 -154.5t-31.5 -154t-85 -126t-125 -85t-153.5 -31t-154.5 31t-126 85t-85 126t-31.5 154zM166 0l1157 1556h283l-1155 -1556h-285zM270 1182q0 -61 43 -105.5t107 -44.5q61 0 105 44 t44 106q0 63 -44 105t-105 42q-63 0 -106.5 -42t-43.5 -105zM952 373q0 82 32 154.5t85 126t126 85t155 31.5t153.5 -31.5t124.5 -85t85 -126t32 -154.5t-32 -154t-85 -126t-124.5 -85t-153.5 -31t-155 31t-126 85t-85 126t-32 154zM1200 373q0 -61 43 -105.5t107 -44.5 q61 0 105 44t44 106q0 63 -44 106t-105 43q-63 0 -106.5 -43t-43.5 -106z" />
<glyph unicode="&#x26;" horiz-adv-x="1349" d="M0 512q0 111 42 203t114 164q-78 109 -78 245q0 117 46 204t126 144.5t187.5 86t230.5 28.5q268 0 424.5 -134t160.5 -396h-469q-16 33 -46.5 53t-69.5 20q-51 0 -89 -36.5t-38 -89.5t37.5 -90t89.5 -37h659v-877h-663q-139 0 -261 28.5t-211.5 91t-140.5 160t-51 232.5z M541 551q0 -53 37.5 -90t89.5 -37h129v254h-129q-51 0 -89 -38t-38 -89z" />
<glyph unicode="'" horiz-adv-x="342" d="M0 1554h342l-49 -708h-244z" />
<glyph unicode="(" horiz-adv-x="653" d="M23 502v547q0 190 35.5 329.5t99 237.5t151.5 161.5t195 102.5l127 -219q-86 -35 -145.5 -91.5t-97.5 -130t-54.5 -161.5t-16.5 -186v-635q0 -98 16.5 -186.5t54.5 -162t97.5 -130t145.5 -89.5l-127 -221q-106 39 -194.5 102.5t-152 163t-99 238.5t-35.5 330z" />
<glyph unicode=")" horiz-adv-x="655" d="M23 1661l127 219q106 -39 194 -102.5t152.5 -161.5t100.5 -237.5t36 -329.5v-547q0 -190 -36 -329.5t-100.5 -239t-152.5 -163t-194 -102.5l-125 221q84 33 143 89.5t97 130t55.5 161.5t17.5 187v635q0 98 -17.5 186t-55.5 161.5t-98.5 130t-143.5 91.5z" />
<glyph unicode="*" horiz-adv-x="1073" d="M23 1130l110 271l281 -123l-47 276h344l-47 -278l286 123l101 -279l-312 -55l209 -203l-276 -186l-135 246l-152 -238l-270 182l217 195z" />
<glyph unicode="+" horiz-adv-x="1210" d="M23 649v256h452v453h258v-453h455v-256h-455v-456h-258v456h-452z" />
<glyph unicode="," horiz-adv-x="538" d="M0 -213l68 709h471l-213 -709h-326z" />
<glyph unicode="-" horiz-adv-x="866" d="M23 635v293h821v-293h-821z" />
<glyph unicode="." horiz-adv-x="583" d="M23 246q0 55 20 105t57 87t86.5 58.5t104.5 21.5t104 -21.5t86 -58.5t58.5 -87t21.5 -105t-21.5 -104.5t-58.5 -85.5t-86 -57.5t-104 -21.5t-104.5 21.5t-86.5 57.5t-57 85.5t-20 104.5z" />
<glyph unicode="/" horiz-adv-x="1083" d="M-51 -209l866 1849h291l-864 -1849h-293z" />
<glyph unicode="0" d="M0 776q0 168 63.5 315.5t174 258t258 174t315.5 63.5t315.5 -63.5t257 -174t173 -258t63.5 -315.5q0 -166 -63.5 -313.5t-173 -258t-257 -174t-315.5 -63.5t-315.5 63.5t-258 174t-174 258t-63.5 313.5zM506 776q0 -63 23.5 -118.5t65.5 -96.5t97.5 -64.5t118.5 -23.5 t118.5 23.5t96.5 64.5t64.5 96.5t23.5 118.5t-23.5 118.5t-64.5 97.5t-96.5 65.5t-118.5 23.5t-118.5 -23.5t-97.5 -65.5t-65.5 -97.5t-23.5 -118.5z" />
<glyph unicode="1" horiz-adv-x="776" d="M16 1059v495h740v-1554h-529v1059h-211z" />
<glyph unicode="2" horiz-adv-x="1271" d="M0 0v385l598 444q84 63 124 112.5t40 121.5q0 41 -31 67.5t-76 26.5q-55 0 -82.5 -32.5t-27.5 -73.5h-525q4 125 53.5 224t134.5 168.5t202.5 106.5t257.5 37q139 0 250.5 -35.5t190.5 -102.5t121 -164t42 -220q0 -141 -56.5 -245.5t-173.5 -194.5l-168 -129h390v-496 h-1264z" />
<glyph unicode="3" horiz-adv-x="1337" d="M0 487h557q16 -29 46 -46t65 -17q53 0 90 37t37 90q0 51 -37 89t-90 38h-150v199h150q53 0 90 36.5t37 90.5q0 53 -37 89.5t-90 36.5q-39 0 -69 -20t-46 -53h-471q4 262 160.5 396t425.5 134q123 0 230.5 -28.5t188 -86t127 -144.5t46.5 -204q0 -70 -20.5 -131 t-57.5 -114q72 -70 113.5 -163t41.5 -204q0 -135 -52 -237.5t-143 -171t-213 -102.5t-261 -34q-135 0 -252 35t-205 100.5t-143.5 162.5t-67.5 222z" />
<glyph unicode="4" horiz-adv-x="1449" d="M0 504l565 1050h735v-895h150v-450h-150v-209h-507v209h-791zM625 659h168v336z" />
<glyph unicode="5" horiz-adv-x="1331" d="M0 496h547q14 -33 45 -52.5t67 -19.5q53 0 90 37t37 90q0 51 -36.5 89t-90.5 38q-35 0 -64.5 -18.5t-45.5 -47.5l-512 76l129 864h1069v-493h-655l-31 -146q100 80 287 80q96 0 186 -26.5t158.5 -81t109.5 -138t41 -196.5q0 -121 -42 -227.5t-126 -185.5t-210 -125 t-294 -46q-129 0 -241.5 38t-198.5 106.5t-143.5 166t-75.5 218.5z" />
<glyph unicode="6" horiz-adv-x="1341" d="M0 606q0 160 44 313.5t113.5 280.5t155.5 220t170 134h600q-182 -129 -298.5 -271t-151.5 -259q92 45 239 45q98 0 183.5 -38t149 -106.5t100 -163.5t36.5 -210q0 -121 -45 -227.5t-132 -185.5t-212 -125t-284 -46q-143 0 -265 46t-211.5 130t-140.5 202t-51 261z M541 551q0 -53 37.5 -90t89.5 -37q53 0 90 37t37 90q0 51 -37 89t-90 38q-51 0 -89 -38t-38 -89z" />
<glyph unicode="7" horiz-adv-x="1257" d="M0 1059v495h1257v-385l-462 -1169h-568l435 1059h-662z" />
<glyph unicode="8" horiz-adv-x="1337" d="M0 512q0 111 42 204t114 163q-37 53 -57.5 114.5t-20.5 130.5q0 121 46 208t126 144.5t187.5 84t230.5 26.5t230.5 -28.5t188 -86t127 -144.5t46.5 -204q0 -70 -20.5 -131t-57.5 -114q72 -70 113.5 -163t41.5 -204q0 -135 -52 -237.5t-143 -171t-213 -102.5t-261 -34 t-261 34t-212.5 102.5t-142.5 171t-52 237.5zM541 551q0 -53 37.5 -90t89.5 -37q53 0 90 37t37 90q0 51 -37 89t-90 38q-51 0 -89 -38t-38 -89zM541 1004q0 -53 37.5 -90t89.5 -37q53 0 90 36.5t37 90.5q0 53 -37 89.5t-90 36.5q-51 0 -89 -36.5t-38 -89.5z" />
<glyph unicode="9" horiz-adv-x="1341" d="M0 1004q0 121 51 227t141.5 185t213 125t266.5 46q156 0 280.5 -46t210.5 -130t132 -201.5t46 -261.5q0 -147 -36.5 -292.5t-98 -271.5t-140.5 -225.5t-165 -158.5h-600q145 115 248.5 245t138.5 247q-78 -18 -151 -19q-104 0 -201.5 34t-172.5 99.5t-119 164.5t-44 233z M547 1004q0 -53 37 -90t88 -37q53 0 90 36.5t37 90.5q0 53 -37 89.5t-90 36.5q-51 0 -88 -36.5t-37 -89.5z" />
<glyph unicode=":" horiz-adv-x="583" d="M23 246q0 55 20 105t57 87t86.5 58.5t104.5 21.5t104 -21.5t86 -58.5t58.5 -87t21.5 -105t-21.5 -104.5t-58.5 -85.5t-86 -57.5t-104 -21.5t-104.5 21.5t-86.5 57.5t-57 85.5t-20 104.5zM23 1061q0 55 20 104t57 86t86.5 58.5t104.5 21.5t104 -21.5t86 -58.5t58.5 -86 t21.5 -104t-21.5 -104.5t-58.5 -85t-86 -57t-104 -21.5t-104.5 21.5t-86.5 57t-57 85t-20 104.5z" />
<glyph unicode=";" horiz-adv-x="595" d="M23 -213l65 709h473l-213 -709h-325zM33 1061q0 55 21.5 104t57 86t85 58.5t104.5 21.5t105.5 -21.5t87 -58.5t58 -86t21.5 -104t-21.5 -104.5t-58 -85t-87 -57t-105.5 -21.5t-104.5 21.5t-85 57t-57 85t-21.5 104.5z" />
<glyph unicode="&#x3c;" horiz-adv-x="1101" d="M23 653v213l1056 482v-314l-620 -274l620 -277v-309z" />
<glyph unicode="=" horiz-adv-x="1273" d="M23 389v287h1228v-287h-1228zM23 924v288h1228v-288h-1228z" />
<glyph unicode="&#x3e;" horiz-adv-x="1101" d="M23 174v309l618 277l-618 274v314l1056 -482v-213z" />
<glyph unicode="?" horiz-adv-x="1196" d="M0 1051q4 137 51 238.5t127 167t188.5 98t233.5 32.5q283 0 439.5 -106.5t156.5 -325.5q0 -74 -29.5 -154.5t-84 -157.5t-132.5 -143.5t-176 -115.5h-405q156 111 235.5 219t79.5 248q0 59 -41 91t-84 32q-20 0 -42.5 -8.5t-41 -24t-31 -38t-12.5 -52.5h-432zM274 246 q0 55 21.5 105t58.5 87t86 58.5t105 21.5q55 0 104 -21.5t86 -58.5t58.5 -87t21.5 -105t-21.5 -104.5t-58.5 -85.5t-86 -57.5t-104 -21.5t-104.5 21.5t-86.5 57.5t-58.5 85.5t-21.5 104.5z" />
<glyph unicode="@" horiz-adv-x="1409" d="M0 725q0 193 49 351.5t152.5 272t264.5 176t384 62.5q156 0 255 -41t154.5 -117.5t76 -184t20.5 -240.5v-584h-455q-190 0 -284.5 84t-94.5 274q0 193 84 281t246 88q104 0 155.5 -9.5t79.5 -31.5q-4 70 -20 115t-45 71.5t-72 35.5t-100 9q-143 0 -247.5 -41 t-172.5 -119.5t-100.5 -193.5t-32.5 -260q0 -150 46 -259.5t127 -182t191.5 -108.5t239.5 -36q55 0 120.5 12.5t128 36t118 55t92.5 70.5l82 -209q-137 -133 -282.5 -185t-307.5 -52q-223 0 -384 75.5t-265.5 197.5t-153.5 275.5t-49 311.5zM825 774q0 -51 22.5 -76.5 t76.5 -25.5h145v151q-35 74 -137 74q-106 0 -107 -123z" />
<glyph unicode="A" horiz-adv-x="1689" d="M0 0l498 1554h694l498 -1554h-613l-61 248h-379l-59 -248h-578zM725 655h203l-101 383z" />
<glyph unicode="B" horiz-adv-x="1357" d="M23 0v1554h827q88 0 167 -33.5t137 -92t92 -137.5t34 -167q0 -70 -20.5 -131t-55.5 -114q72 -70 113 -163t41 -204q0 -106 -40 -199.5t-109.5 -163t-163 -109.5t-199.5 -40h-823zM555 424h135q53 0 90 37t37 90q0 51 -37 89t-90 38h-135v-254zM557 877h133q53 0 90 36.5 t37 90.5q0 53 -37 89.5t-90 36.5h-133v-253z" />
<glyph unicode="C" horiz-adv-x="1603" d="M0 776q0 168 63.5 315.5t174 258t258 174t315.5 63.5q145 0 276.5 -48t235.5 -134t178 -204t103 -255h-541q-41 61 -106.5 98t-145.5 37q-63 0 -118.5 -23.5t-97.5 -65.5t-65.5 -97t-23.5 -119q0 -63 23.5 -118.5t65.5 -96.5t97.5 -64.5t118.5 -23.5q80 0 145.5 37 t106.5 98h541q-29 -139 -103 -255.5t-178 -203t-235.5 -134.5t-276.5 -48q-168 0 -315.5 63.5t-258 174t-174 258t-63.5 313.5z" />
<glyph unicode="D" horiz-adv-x="1449" d="M23 0v1554h647q162 0 304 -60t247.5 -165.5t167 -248t61.5 -304.5t-61.5 -303t-167 -246.5t-248 -166t-303.5 -60.5h-647zM551 496h119q57 0 109 21.5t91 59t61.5 89t22.5 110.5t-22.5 110.5t-61.5 90.5t-91 60.5t-109 21.5h-119v-563z" />
<glyph unicode="E" d="M0 776q0 168 63.5 315.5t174 258t258 174t315.5 63.5t315.5 -63.5t257 -174t173 -258t63.5 -315.5q0 -23 -1 -46t-3 -46h-1096q27 -98 97.5 -154.5t193.5 -56.5q70 0 124 18.5t77 57.5h575q-37 -127 -111.5 -233.5t-176 -184.5t-226.5 -121t-262 -43q-168 0 -315.5 63.5 t-258 174t-174 258t-63.5 313.5zM551 936h518q-29 66 -91.5 105.5t-166.5 39.5t-163.5 -40t-96.5 -105z" />
<glyph unicode="F" horiz-adv-x="993" d="M23 0v1554h958v-495h-430v-170h430v-496h-430v-393h-528z" />
<glyph unicode="G" d="M0 776q0 168 63.5 315.5t174 258t258 174t315.5 63.5q137 0 262 -44t226.5 -120.5t176 -184.5t111.5 -232h-577q-41 35 -91.5 55t-107.5 20q-63 0 -118.5 -23.5t-97.5 -65.5t-65.5 -97t-23.5 -119q0 -63 23.5 -118.5t65.5 -96.5t97.5 -64.5t118.5 -23.5q82 0 149.5 39 t108.5 104h-264v254h811q2 -23 3 -46t1 -48q0 -166 -63.5 -313.5t-173 -258t-257 -174t-315.5 -63.5t-315.5 63.5t-258 174t-174 258t-63.5 313.5z" />
<glyph unicode="H" horiz-adv-x="1415" d="M23 0v1554h530v-542h309v542h531v-1554h-531v561h-309v-561h-530z" />
<glyph unicode="I" horiz-adv-x="575" d="M23 0v1554h530v-1554h-530z" />
<glyph unicode="J" horiz-adv-x="1351" d="M0 631h494q2 -72 50 -119t120 -47t122 47t50 119v923h493v-923q0 -139 -52 -260t-142.5 -210t-212 -141.5t-258.5 -52.5q-139 0 -260 52.5t-210.5 141.5t-141.5 210t-52 260z" />
<glyph unicode="K" horiz-adv-x="1449" d="M23 0v1554h528v-651l299 651h582l-383 -735l426 -819h-613l-311 692v-692h-528z" />
<glyph unicode="L" horiz-adv-x="980" d="M23 0v1554h528v-1058h430v-496h-958z" />
<glyph unicode="M" horiz-adv-x="1835" d="M23 0v1554h722l183 -794l184 794h703v-1554h-465v854l-211 -854h-443l-211 854v-854h-462z" />
<glyph unicode="N" horiz-adv-x="1484" d="M23 0v1554h485l446 -677v677h508v-1554h-485l-447 698v-698h-507z" />
<glyph unicode="O" d="M0 776q0 168 63.5 315.5t174 258t258 174t315.5 63.5t315.5 -63.5t257 -174t173 -258t63.5 -315.5q0 -166 -63.5 -313.5t-173 -258t-257 -174t-315.5 -63.5t-315.5 63.5t-258 174t-174 258t-63.5 313.5zM506 776q0 -63 23.5 -118.5t65.5 -96.5t97.5 -64.5t118.5 -23.5 t118.5 23.5t96.5 64.5t64.5 96.5t23.5 118.5t-23.5 118.5t-64.5 97.5t-96.5 65.5t-118.5 23.5t-118.5 -23.5t-97.5 -65.5t-65.5 -97.5t-23.5 -118.5z" />
<glyph unicode="P" horiz-adv-x="1302" d="M23 0v1554h614q137 0 259 -49t212 -135t142.5 -204.5t52.5 -256.5q0 -137 -52.5 -253.5t-142.5 -202.5t-212 -135.5t-259 -49.5h-86v-268h-528zM553 721h84q72 0 122 50t50 122q0 35 -13.5 65.5t-37 54t-54 37t-67.5 13.5h-84v-342z" />
<glyph unicode="Q" horiz-adv-x="1581" d="M0 776q0 168 63.5 315.5t173 258t257 174t317.5 63.5q168 0 310.5 -63.5t243.5 -169t158.5 -242.5t57.5 -285q0 -164 -51 -270t-119 -172h139v-385h-739q-168 0 -315.5 58.5t-258 163t-174 246.5t-63.5 308zM506 776q0 -63 23.5 -118.5t65.5 -96.5t97.5 -64.5 t118.5 -23.5t118.5 23.5t96.5 64.5t64.5 96.5t23.5 118.5t-23.5 118.5t-64.5 97.5t-96.5 65.5t-118.5 23.5t-118.5 -23.5t-97.5 -65.5t-65.5 -97.5t-23.5 -118.5z" />
<glyph unicode="R" horiz-adv-x="1370" d="M23 0v1554h808q113 0 211.5 -42t171 -114.5t114.5 -171t42 -210.5q0 -143 -68.5 -262t-181.5 -191l256 -563h-645l-180 502v-502h-528zM551 842h186q51 0 89 36.5t38 90.5q0 51 -38 88t-89 37h-186v-252z" />
<glyph unicode="S" horiz-adv-x="1390" d="M0 549h565q0 -35 14.5 -59.5t35 -40t43 -22.5t38.5 -7q31 0 54.5 11t40 27.5t25.5 36t9 37.5q0 31 -32.5 47.5t-86 26.5t-120 21.5t-133.5 29.5q-66 18 -137.5 47t-131 77t-98.5 117t-39 167q0 123 46 220t133 164t211 102.5t280 35.5q145 0 263 -37t202 -106.5 t131 -168.5t53 -224h-547q0 49 -27.5 86t-82.5 37q-43 0 -77 -26t-34 -67q0 -25 18.5 -44t59.5 -36.5t109.5 -34t166.5 -32.5q139 -25 225.5 -69t133.5 -103.5t63.5 -131t16.5 -151.5q0 -92 -38 -183t-121 -165t-212 -119t-311 -45q-184 0 -317.5 58.5t-219.5 145.5 t-128 189.5t-44 188.5z" />
<glyph unicode="T" horiz-adv-x="1390" d="M0 1059v495h1391v-495h-433v-1059h-528v1059h-430z" />
<glyph unicode="U" horiz-adv-x="1376" d="M23 631v923h495v-923q0 -72 50 -119t120 -47q72 0 122 47t50 119v923h494v-923q0 -139 -52.5 -260t-142.5 -210t-212 -141.5t-259 -52.5q-139 0 -260 52.5t-211 141.5t-142 210t-52 260z" />
<glyph unicode="V" horiz-adv-x="1689" d="M0 1554h612l250 -956l250 956h578l-498 -1554h-694z" />
<glyph unicode="W" horiz-adv-x="2179" d="M0 1554h571l123 -868l207 868h442l197 -868l133 868h506l-317 -1554h-619l-162 772l-184 -772h-588z" />
<glyph unicode="X" horiz-adv-x="1525" d="M-20 0l458 815l-422 739h641l138 -284l145 284h567l-420 -753l461 -801h-643l-180 352l-176 -352h-569z" />
<glyph unicode="Y" horiz-adv-x="1556" d="M0 1554h612l183 -426l184 426h577l-514 -1032v-522h-530v522z" />
<glyph unicode="Z" horiz-adv-x="1286" d="M14 0v385l547 674h-547v495h1256v-385l-549 -673h549v-496h-1256z" />
<glyph unicode="[" horiz-adv-x="546" d="M23 -332v2212h501v-238h-209v-1732h209v-242h-501z" />
<glyph unicode="\" horiz-adv-x="1105" d="M-70 1796h291l940 -1964h-291z" />
<glyph unicode="]" horiz-adv-x="546" d="M23 -90h208v1732h-208v238h501v-2212h-501v242z" />
<glyph unicode="^" horiz-adv-x="1163" d="M23 657l415 983h279l424 -983h-359l-202 525l-213 -525h-344z" />
<glyph unicode="_" horiz-adv-x="1542" d="M0 -25h1548v-272h-1548v272z" />
<glyph unicode="`" horiz-adv-x="657" d="M23 1855l145 201l467 -274l-105 -131z" />
<glyph unicode="a" horiz-adv-x="1689" d="M0 0l498 1554h694l498 -1554h-613l-61 248h-379l-59 -248h-578zM725 655h203l-101 383z" />
<glyph unicode="b" horiz-adv-x="1357" d="M23 0v1554h827q88 0 167 -33.5t137 -92t92 -137.5t34 -167q0 -70 -20.5 -131t-55.5 -114q72 -70 113 -163t41 -204q0 -106 -40 -199.5t-109.5 -163t-163 -109.5t-199.5 -40h-823zM555 424h135q53 0 90 37t37 90q0 51 -37 89t-90 38h-135v-254zM557 877h133q53 0 90 36.5 t37 90.5q0 53 -37 89.5t-90 36.5h-133v-253z" />
<glyph unicode="c" horiz-adv-x="1603" d="M0 776q0 168 63.5 315.5t174 258t258 174t315.5 63.5q145 0 276.5 -48t235.5 -134t178 -204t103 -255h-541q-41 61 -106.5 98t-145.5 37q-63 0 -118.5 -23.5t-97.5 -65.5t-65.5 -97t-23.5 -119q0 -63 23.5 -118.5t65.5 -96.5t97.5 -64.5t118.5 -23.5q80 0 145.5 37 t106.5 98h541q-29 -139 -103 -255.5t-178 -203t-235.5 -134.5t-276.5 -48q-168 0 -315.5 63.5t-258 174t-174 258t-63.5 313.5z" />
<glyph unicode="d" horiz-adv-x="1449" d="M23 0v1554h647q162 0 304 -60t247.5 -165.5t167 -248t61.5 -304.5t-61.5 -303t-167 -246.5t-248 -166t-303.5 -60.5h-647zM551 496h119q57 0 109 21.5t91 59t61.5 89t22.5 110.5t-22.5 110.5t-61.5 90.5t-91 60.5t-109 21.5h-119v-563z" />
<glyph unicode="e" d="M0 776q0 168 63.5 315.5t174 258t258 174t315.5 63.5t315.5 -63.5t257 -174t173 -258t63.5 -315.5q0 -23 -1 -46t-3 -46h-1096q27 -98 97.5 -154.5t193.5 -56.5q70 0 124 18.5t77 57.5h575q-37 -127 -111.5 -233.5t-176 -184.5t-226.5 -121t-262 -43q-168 0 -315.5 63.5 t-258 174t-174 258t-63.5 313.5zM551 936h518q-29 66 -91.5 105.5t-166.5 39.5t-163.5 -40t-96.5 -105z" />
<glyph unicode="f" horiz-adv-x="993" d="M23 0v1554h958v-495h-430v-170h430v-496h-430v-393h-528z" />
<glyph unicode="g" d="M0 776q0 168 63.5 315.5t174 258t258 174t315.5 63.5q137 0 262 -44t226.5 -120.5t176 -184.5t111.5 -232h-577q-41 35 -91.5 55t-107.5 20q-63 0 -118.5 -23.5t-97.5 -65.5t-65.5 -97t-23.5 -119q0 -63 23.5 -118.5t65.5 -96.5t97.5 -64.5t118.5 -23.5q82 0 149.5 39 t108.5 104h-264v254h811q2 -23 3 -46t1 -48q0 -166 -63.5 -313.5t-173 -258t-257 -174t-315.5 -63.5t-315.5 63.5t-258 174t-174 258t-63.5 313.5z" />
<glyph unicode="h" horiz-adv-x="1415" d="M23 0v1554h530v-542h309v542h531v-1554h-531v561h-309v-561h-530z" />
<glyph unicode="i" horiz-adv-x="575" d="M23 0v1554h530v-1554h-530z" />
<glyph unicode="j" horiz-adv-x="1351" d="M0 631h494q2 -72 50 -119t120 -47t122 47t50 119v923h493v-923q0 -139 -52 -260t-142.5 -210t-212 -141.5t-258.5 -52.5q-139 0 -260 52.5t-210.5 141.5t-141.5 210t-52 260z" />
<glyph unicode="k" horiz-adv-x="1449" d="M23 0v1554h528v-651l299 651h582l-383 -735l426 -819h-613l-311 692v-692h-528z" />
<glyph unicode="l" horiz-adv-x="980" d="M23 0v1554h528v-1058h430v-496h-958z" />
<glyph unicode="m" horiz-adv-x="1835" d="M23 0v1554h722l183 -794l184 794h703v-1554h-465v854l-211 -854h-443l-211 854v-854h-462z" />
<glyph unicode="n" horiz-adv-x="1484" d="M23 0v1554h485l446 -677v677h508v-1554h-485l-447 698v-698h-507z" />
<glyph unicode="o" d="M0 776q0 168 63.5 315.5t174 258t258 174t315.5 63.5t315.5 -63.5t257 -174t173 -258t63.5 -315.5q0 -166 -63.5 -313.5t-173 -258t-257 -174t-315.5 -63.5t-315.5 63.5t-258 174t-174 258t-63.5 313.5zM506 776q0 -63 23.5 -118.5t65.5 -96.5t97.5 -64.5t118.5 -23.5 t118.5 23.5t96.5 64.5t64.5 96.5t23.5 118.5t-23.5 118.5t-64.5 97.5t-96.5 65.5t-118.5 23.5t-118.5 -23.5t-97.5 -65.5t-65.5 -97.5t-23.5 -118.5z" />
<glyph unicode="p" horiz-adv-x="1302" d="M23 0v1554h614q137 0 259 -49t212 -135t142.5 -204.5t52.5 -256.5q0 -137 -52.5 -253.5t-142.5 -202.5t-212 -135.5t-259 -49.5h-86v-268h-528zM553 721h84q72 0 122 50t50 122q0 35 -13.5 65.5t-37 54t-54 37t-67.5 13.5h-84v-342z" />
<glyph unicode="q" horiz-adv-x="1581" d="M0 776q0 168 63.5 315.5t173 258t257 174t317.5 63.5q168 0 310.5 -63.5t243.5 -169t158.5 -242.5t57.5 -285q0 -164 -51 -270t-119 -172h139v-385h-739q-168 0 -315.5 58.5t-258 163t-174 246.5t-63.5 308zM506 776q0 -63 23.5 -118.5t65.5 -96.5t97.5 -64.5 t118.5 -23.5t118.5 23.5t96.5 64.5t64.5 96.5t23.5 118.5t-23.5 118.5t-64.5 97.5t-96.5 65.5t-118.5 23.5t-118.5 -23.5t-97.5 -65.5t-65.5 -97.5t-23.5 -118.5z" />
<glyph unicode="r" horiz-adv-x="1370" d="M23 0v1554h808q113 0 211.5 -42t171 -114.5t114.5 -171t42 -210.5q0 -143 -68.5 -262t-181.5 -191l256 -563h-645l-180 502v-502h-528zM551 842h186q51 0 89 36.5t38 90.5q0 51 -38 88t-89 37h-186v-252z" />
<glyph unicode="s" horiz-adv-x="1390" d="M0 549h565q0 -35 14.5 -59.5t35 -40t43 -22.5t38.5 -7q31 0 54.5 11t40 27.5t25.5 36t9 37.5q0 31 -32.5 47.5t-86 26.5t-120 21.5t-133.5 29.5q-66 18 -137.5 47t-131 77t-98.5 117t-39 167q0 123 46 220t133 164t211 102.5t280 35.5q145 0 263 -37t202 -106.5 t131 -168.5t53 -224h-547q0 49 -27.5 86t-82.5 37q-43 0 -77 -26t-34 -67q0 -25 18.5 -44t59.5 -36.5t109.5 -34t166.5 -32.5q139 -25 225.5 -69t133.5 -103.5t63.5 -131t16.5 -151.5q0 -92 -38 -183t-121 -165t-212 -119t-311 -45q-184 0 -317.5 58.5t-219.5 145.5 t-128 189.5t-44 188.5z" />
<glyph unicode="t" horiz-adv-x="1390" d="M0 1059v495h1391v-495h-433v-1059h-528v1059h-430z" />
<glyph unicode="u" horiz-adv-x="1376" d="M23 631v923h495v-923q0 -72 50 -119t120 -47q72 0 122 47t50 119v923h494v-923q0 -139 -52.5 -260t-142.5 -210t-212 -141.5t-259 -52.5q-139 0 -260 52.5t-211 141.5t-142 210t-52 260z" />
<glyph unicode="v" horiz-adv-x="1689" d="M0 1554h612l250 -956l250 956h578l-498 -1554h-694z" />
<glyph unicode="w" horiz-adv-x="2179" d="M0 1554h571l123 -868l207 868h442l197 -868l133 868h506l-317 -1554h-619l-162 772l-184 -772h-588z" />
<glyph unicode="x" horiz-adv-x="1525" d="M-20 0l458 815l-422 739h641l138 -284l145 284h567l-420 -753l461 -801h-643l-180 352l-176 -352h-569z" />
<glyph unicode="y" horiz-adv-x="1556" d="M0 1554h612l183 -426l184 426h577l-514 -1032v-522h-530v522z" />
<glyph unicode="z" horiz-adv-x="1286" d="M14 0v385l547 674h-547v495h1256v-385l-549 -673h549v-496h-1256z" />
<glyph unicode="{" horiz-adv-x="724" d="M10 664v278h101q39 0 54 42t15 128v451q0 90 29 151.5t76 98t104 52t117 15.5h199v-258h-130q-102 0 -102 -276v-314q0 -158 -121 -237q68 -45 94.5 -96.5t26.5 -129.5v-438q0 -203 92 -203h140v-260h-193q-57 0 -116.5 15.5t-106.5 55.5t-78 107.5t-31 171.5v463 q0 100 -17.5 141.5t-51.5 41.5h-101z" />
<glyph unicode="|" horiz-adv-x="376" d="M23 -283v2165h331v-2165h-331z" />
<glyph unicode="}" horiz-adv-x="724" d="M23 -72h137q94 0 94 203v438q0 78 26.5 129.5t92.5 96.5q-119 80 -119 237v314q0 276 -102 276h-129v258h196q57 0 116.5 -15.5t105.5 -52t76 -98t30 -151.5v-451q0 -86 14 -128t53 -42h101v-278h-101q-33 0 -50 -41t-17 -142v-463q0 -104 -31 -171.5t-78 -107.5 t-107.5 -55.5t-117.5 -15.5h-190v260z" />
<glyph unicode="~" horiz-adv-x="1157" d="M23 485v342q47 57 120.5 102.5t171.5 45.5q74 0 139.5 -18.5t125 -42t118 -42t117.5 -18.5q23 0 50.5 5t64.5 27.5t87 68.5t118 126v-364q-76 -74 -151 -108t-183 -34q-61 0 -119.5 18.5t-117 40t-117 40t-121.5 18.5q-23 0 -47.5 -7t-58.5 -28.5t-81 -62.5t-116 -109z " />
<glyph unicode="&#xa1;" horiz-adv-x="663" d="M23 0l88 971h442l88 -971h-618zM61 1307q0 55 21.5 104t58.5 86t87.5 58.5t105.5 21.5t104 -21.5t85 -58.5t57.5 -86t21.5 -104t-21.5 -104.5t-57.5 -86.5t-85 -58.5t-104 -21.5t-105.5 21.5t-87.5 58.5t-58.5 86t-21.5 105z" />
<glyph unicode="&#xa2;" horiz-adv-x="1103" d="M20 768q0 94 31 180t86.5 156t131 118t165.5 68v264h246v-266q150 -37 258.5 -146.5t142.5 -262.5h-358q-29 41 -72 65.5t-96 24.5q-86 0 -143.5 -57.5t-57.5 -143.5q0 -43 15.5 -80t43 -64.5t63.5 -43t79 -15.5q53 0 96 24.5t72 65.5h358q-16 -76 -53 -142.5t-89 -120.5 t-118.5 -92t-140.5 -56v-246h-246v246q-90 20 -165.5 68t-131 118t-86.5 156t-31 182z" />
<glyph unicode="&#xa3;" horiz-adv-x="1486" d="M20 635v166h115v123q0 137 52.5 259t142.5 211t211 141t260 52q137 0 259 -52t211 -141t141 -211t52 -259h-491q-2 70 -51.5 118t-120.5 48q-70 0 -120 -48.5t-50 -117.5v-123h309v-166h-309v-139h827v-496h-1433v496h110v139h-115z" />
<glyph unicode="&#xa5;" horiz-adv-x="1437" d="M16 1554h490l237 -337l240 337h449l-433 -567v-246h369v-280h-369v-461h-530v461h-387v280h387v199z" />
<glyph unicode="&#xa6;" horiz-adv-x="376" d="M23 -283v945h331v-945h-331zM23 907v975h331v-975h-331z" />
<glyph unicode="&#xa8;" horiz-adv-x="841" d="M23 1688v335h321v-335h-321zM498 1688v335h321v-335h-321z" />
<glyph unicode="&#xa9;" horiz-adv-x="1665" d="M23 776q0 168 63.5 315.5t174 258t258 174t312.5 63.5q168 0 315.5 -63.5t258.5 -174t174 -258t63 -315.5q0 -166 -63 -313.5t-174 -258t-258.5 -174t-315.5 -63.5q-166 0 -313 63.5t-257.5 174t-174 258t-63.5 313.5zM246 776q0 -121 46 -227.5t126 -186t186.5 -126 t226.5 -46.5q123 0 229.5 46.5t185.5 126t125 186t46 227.5q0 123 -46 229.5t-125 185.5t-185.5 124t-229.5 45q-121 0 -227 -45t-186 -124t-126 -185.5t-46 -229.5zM453 776q0 78 29.5 146.5t80.5 119t119 80t145 29.5q68 0 128.5 -22.5t108.5 -62.5t82 -94t48 -118h-250 q-18 29 -49 46.5t-68 17.5q-59 0 -99 -41t-40 -101q0 -59 40 -99t99 -40q78 0 117 61h250q-14 -63 -48 -117.5t-82 -94.5t-108.5 -62.5t-128.5 -22.5q-78 0 -145.5 30t-118.5 81t-80.5 118.5t-29.5 145.5z" />
<glyph unicode="&#xaa;" horiz-adv-x="1013" d="M0 444l297 932h418l299 -932h-369l-35 148h-229l-35 -148h-346zM434 838h123l-59 229z" />
<glyph unicode="&#xab;" horiz-adv-x="1206" d="M0 731l428 531l211 -187l-293 -344l293 -344l-211 -186zM565 731l432 531l209 -187l-288 -344l288 -344l-209 -184z" />
<glyph unicode="&#xad;" horiz-adv-x="866" d="M23 635v293h821v-293h-821z" />
<glyph unicode="&#xae;" horiz-adv-x="1075" d="M23 1073q0 106 40.5 199.5t110.5 163t163 110.5t200 41q106 0 200 -41t164 -110.5t111 -162.5t41 -200q0 -106 -41 -200.5t-111 -164t-164 -110.5t-200 -41t-199.5 41t-163.5 110.5t-110.5 164t-40.5 200.5zM164 1073q0 -78 29.5 -146.5t80 -118.5t118 -80t145.5 -30 t145.5 30t117.5 80t78.5 118.5t28.5 146.5q0 76 -28.5 143.5t-78.5 118.5t-118 80t-145 29q-78 0 -145.5 -29t-118 -80t-80 -118.5t-29.5 -143.5zM360 860v440h230q66 0 109.5 -44t43.5 -109q0 -41 -19 -73t-52 -54l71 -160h-182l-51 141v-141h-150zM510 1096h53 q14 0 25.5 11t11.5 28q0 16 -11 25t-26 9h-53v-73z" />
<glyph unicode="&#xb0;" horiz-adv-x="901" d="M23 1315q0 80 23.5 150.5t74.5 122.5t132 83t196 31q117 0 197.5 -31t132.5 -83t76 -122.5t24 -150.5t-24 -150.5t-76 -124t-133 -84t-197 -30.5q-115 0 -196 30.5t-132 84t-74.5 124t-23.5 150.5zM256 1319q0 -76 45 -130t148 -54q102 0 148 54t46 130q0 78 -45 128 t-149 50t-148.5 -50t-44.5 -128z" />
<glyph unicode="&#xb4;" horiz-adv-x="657" d="M23 1782l464 274l148 -201l-510 -204z" />
<glyph unicode="&#xb6;" horiz-adv-x="1304" d="M23 1284q0 57 18 106.5t60 86t110 57t164 20.5h909l-129 -241v-1600h-305v1280h-250v-1280h-309v1286q-141 31 -204.5 98.5t-63.5 186.5z" />
<glyph unicode="&#xb7;" horiz-adv-x="583" d="M23 778q0 55 20 105.5t57 87.5t86.5 58.5t104.5 21.5t104 -21.5t86 -58.5t58.5 -87t21.5 -106q0 -55 -21.5 -104t-58.5 -85t-86 -57.5t-104 -21.5t-104.5 21.5t-86.5 57.5t-57 85t-20 104z" />
<glyph unicode="&#xb8;" horiz-adv-x="442" d="M59 -336l80 356h281l-156 -356h-205z" />
<glyph unicode="&#xba;" horiz-adv-x="972" d="M0 909q0 100 38 189.5t104.5 156t154.5 104.5t188 38t189.5 -38t156 -104.5t104.5 -155.5t38 -190q0 -100 -38 -188t-104.5 -154.5t-155.5 -104.5t-190 -38q-100 0 -188 38t-154.5 104.5t-104.5 154.5t-38 188zM305 909q0 -76 52.5 -128t127.5 -52q78 0 130.5 52.5 t52.5 127.5q0 78 -52.5 130.5t-130.5 52.5q-76 0 -128 -52.5t-52 -130.5z" />
<glyph unicode="&#xbb;" horiz-adv-x="1204" d="M0 387l291 344l-291 344l213 187l424 -531l-424 -530zM565 387l291 344l-291 344l213 187l426 -531l-426 -530z" />
<glyph unicode="&#xbf;" horiz-adv-x="1196" d="M0 399q0 74 29.5 155t84 157.5t132.5 143.5t176 116h405q-154 -111 -234.5 -219.5t-80.5 -247.5q0 -61 41 -93t84 -32q20 0 42.5 8t41 23.5t31 39t12.5 54.5h432q-4 -137 -51 -238.5t-128 -167t-188.5 -98.5t-230.5 -33q-285 0 -441.5 106.5t-156.5 325.5zM381 1307 q0 55 21.5 104t58.5 86t87 58.5t105 21.5t104.5 -21.5t85.5 -58.5t57.5 -86t21.5 -104t-21.5 -104.5t-57.5 -86.5t-85 -58.5t-105 -21.5q-55 0 -105 21.5t-87 58.5t-58.5 86t-21.5 105z" />
<glyph unicode="&#xc0;" horiz-adv-x="1689" d="M0 0l498 1554h694l498 -1554h-613l-61 248h-379l-59 -248h-578zM537 1855l145 201l467 -274l-105 -131zM725 655h203l-101 383z" />
<glyph unicode="&#xc1;" horiz-adv-x="1689" d="M0 0l498 1554h694l498 -1554h-613l-61 248h-379l-59 -248h-578zM537 1782l464 274l148 -201l-510 -204zM725 655h203l-101 383z" />
<glyph unicode="&#xc2;" horiz-adv-x="1689" d="M0 0l498 1554h694l498 -1554h-613l-61 248h-379l-59 -248h-578zM402 1743l352 313h176l354 -313l-112 -92l-328 204l-332 -204zM725 655h203l-101 383z" />
<glyph unicode="&#xc3;" horiz-adv-x="1689" d="M0 0l498 1554h694l498 -1554h-613l-61 248h-379l-59 -248h-578zM394 1774q10 39 32.5 77.5t58.5 69.5t82 50.5t101 19.5q63 0 109.5 -12.5t85 -27t75.5 -26.5t84 -12q74 0 101 94l174 -86q-10 -39 -34 -78t-58.5 -70.5t-80.5 -51t-102 -19.5q-66 0 -107.5 12t-78.5 26.5 t-75 27t-93 12.5q-31 0 -60.5 -18.5t-46.5 -71.5zM725 655h203l-101 383z" />
<glyph unicode="&#xc4;" horiz-adv-x="1689" d="M0 0l498 1554h694l498 -1554h-613l-61 248h-379l-59 -248h-578zM447 1688v335h321v-335h-321zM725 655h203l-101 383zM922 1688v335h321v-335h-321z" />
<glyph unicode="&#xc5;" horiz-adv-x="1689" d="M0 0l498 1554h694l498 -1554h-613l-61 248h-379l-59 -248h-578zM517 1839q0 129 73.5 206t253.5 77t256 -77t76 -206q0 -131 -76 -208t-256 -77t-253.5 77t-73.5 208zM701 1839q0 -57 32.5 -91t110.5 -34q80 0 113 34t33 91q0 55 -33 89t-113 34q-78 0 -110.5 -34 t-32.5 -89zM725 655h203l-101 383z" />
<glyph unicode="&#xc6;" horiz-adv-x="2562" d="M0 0l498 1554h1249q168 0 316.5 -58t259 -162.5t175 -247t64.5 -310.5q0 -23 -1 -46t-3 -46h-1098q29 -98 98.5 -154.5t192.5 -56.5q72 0 126 18.5t77 57.5h575q-37 -127 -111.5 -233.5t-177 -183.5t-227.5 -121t-262 -44q-186 0 -344 76t-270 205h-500l-59 -248h-578z M725 655h225q-4 29 -6 59.5t-2 61.5q0 78 12.5 150.5t40.5 136.5h-170zM1491 936h520q-29 66 -92.5 105.5t-167.5 39.5t-163.5 -40t-96.5 -105z" />
<glyph unicode="&#xc7;" horiz-adv-x="1603" d="M0 776q0 168 63.5 315.5t174 258t258 174t315.5 63.5q145 0 276.5 -48t235.5 -134t178 -204t103 -255h-541q-41 61 -106.5 98t-145.5 37q-63 0 -118.5 -23.5t-97.5 -65.5t-65.5 -97t-23.5 -119q0 -63 23.5 -118.5t65.5 -96.5t97.5 -64.5t118.5 -23.5q80 0 145.5 37 t106.5 98h541q-27 -121 -87.5 -227.5t-147.5 -189t-195.5 -138t-231.5 -76.5l-137 -313h-203l70 316q-143 25 -266 96t-213.5 176.5t-141.5 240t-51 283.5z" />
<glyph unicode="&#xc8;" d="M0 776q0 168 63.5 315.5t174 258t258 174t315.5 63.5t315.5 -63.5t257 -174t173 -258t63.5 -315.5q0 -23 -1 -46t-3 -46h-1096q27 -98 97.5 -154.5t193.5 -56.5q70 0 124 18.5t77 57.5h575q-37 -127 -111.5 -233.5t-176 -184.5t-226.5 -121t-262 -43q-168 0 -315.5 63.5 t-258 174t-174 258t-63.5 313.5zM504 1855l145 201l467 -274l-105 -131zM551 936h518q-29 66 -91.5 105.5t-166.5 39.5t-163.5 -40t-96.5 -105z" />
<glyph unicode="&#xc9;" d="M0 776q0 168 63.5 315.5t174 258t258 174t315.5 63.5t315.5 -63.5t257 -174t173 -258t63.5 -315.5q0 -23 -1 -46t-3 -46h-1096q27 -98 97.5 -154.5t193.5 -56.5q70 0 124 18.5t77 57.5h575q-37 -127 -111.5 -233.5t-176 -184.5t-226.5 -121t-262 -43q-168 0 -315.5 63.5 t-258 174t-174 258t-63.5 313.5zM504 1782l464 274l148 -201l-510 -204zM551 936h518q-29 66 -91.5 105.5t-166.5 39.5t-163.5 -40t-96.5 -105z" />
<glyph unicode="&#xca;" d="M0 776q0 168 63.5 315.5t174 258t258 174t315.5 63.5t315.5 -63.5t257 -174t173 -258t63.5 -315.5q0 -23 -1 -46t-3 -46h-1096q27 -98 97.5 -154.5t193.5 -56.5q70 0 124 18.5t77 57.5h575q-37 -127 -111.5 -233.5t-176 -184.5t-226.5 -121t-262 -43q-168 0 -315.5 63.5 t-258 174t-174 258t-63.5 313.5zM369 1743l352 313h176l354 -313l-112 -92l-328 204l-332 -204zM551 936h518q-29 66 -91.5 105.5t-166.5 39.5t-163.5 -40t-96.5 -105z" />
<glyph unicode="&#xcb;" d="M0 776q0 168 63.5 315.5t174 258t258 174t315.5 63.5t315.5 -63.5t257 -174t173 -258t63.5 -315.5q0 -23 -1 -46t-3 -46h-1096q27 -98 97.5 -154.5t193.5 -56.5q70 0 124 18.5t77 57.5h575q-37 -127 -111.5 -233.5t-176 -184.5t-226.5 -121t-262 -43q-168 0 -315.5 63.5 t-258 174t-174 258t-63.5 313.5zM412 1688v335h321v-335h-321zM551 936h518q-29 66 -91.5 105.5t-166.5 39.5t-163.5 -40t-96.5 -105zM887 1688v335h321v-335h-321z" />
<glyph unicode="&#xcc;" horiz-adv-x="575" d="M-16 1855l145 201l467 -274l-105 -131zM23 0v1554h530v-1554h-530z" />
<glyph unicode="&#xcd;" horiz-adv-x="575" d="M-16 1782l464 274l148 -201l-510 -204zM23 0v1554h530v-1554h-530z" />
<glyph unicode="&#xce;" horiz-adv-x="575" d="M-151 1743l352 313h176l354 -313l-112 -92l-328 204l-332 -204zM23 0v1554h530v-1554h-530z" />
<glyph unicode="&#xcf;" horiz-adv-x="575" d="M-108 1688v335h321v-335h-321zM23 0v1554h530v-1554h-530zM367 1688v335h321v-335h-321z" />
<glyph unicode="&#xd0;" horiz-adv-x="1472" d="M-57 657v248h102v649h647q162 0 304.5 -60t248 -165.5t167 -248t61.5 -304.5t-61.5 -303t-167 -246.5t-248 -166t-304.5 -60.5h-647v657h-102zM573 496h119q57 0 109.5 21.5t91.5 59t61.5 89t22.5 110.5t-22.5 110.5t-61.5 90.5t-91 60.5t-110 21.5h-119v-154h150v-248 h-150v-161z" />
<glyph unicode="&#xd1;" horiz-adv-x="1484" d="M23 0v1554h485l446 -677v677h508v-1554h-485l-447 698v-698h-507zM291 1774q10 39 32.5 77.5t58.5 69.5t82 50.5t101 19.5q63 0 109.5 -12.5t85 -27t75.5 -26.5t84 -12q74 0 101 94l174 -86q-10 -39 -34 -78t-58.5 -70.5t-80.5 -51t-102 -19.5q-66 0 -107.5 12 t-78.5 26.5t-75 27t-93 12.5q-31 0 -60.5 -18.5t-46.5 -71.5z" />
<glyph unicode="&#xd2;" d="M0 776q0 168 63.5 315.5t174 258t258 174t315.5 63.5t315.5 -63.5t257 -174t173 -258t63.5 -315.5q0 -166 -63.5 -313.5t-173 -258t-257 -174t-315.5 -63.5t-315.5 63.5t-258 174t-174 258t-63.5 313.5zM504 1855l145 201l467 -274l-105 -131zM506 776q0 -63 23.5 -118.5 t65.5 -96.5t97.5 -64.5t118.5 -23.5t118.5 23.5t96.5 64.5t64.5 96.5t23.5 118.5t-23.5 118.5t-64.5 97.5t-96.5 65.5t-118.5 23.5t-118.5 -23.5t-97.5 -65.5t-65.5 -97.5t-23.5 -118.5z" />
<glyph unicode="&#xd3;" d="M0 776q0 168 63.5 315.5t174 258t258 174t315.5 63.5t315.5 -63.5t257 -174t173 -258t63.5 -315.5q0 -166 -63.5 -313.5t-173 -258t-257 -174t-315.5 -63.5t-315.5 63.5t-258 174t-174 258t-63.5 313.5zM504 1782l464 274l148 -201l-510 -204zM506 776q0 -63 23.5 -118.5 t65.5 -96.5t97.5 -64.5t118.5 -23.5t118.5 23.5t96.5 64.5t64.5 96.5t23.5 118.5t-23.5 118.5t-64.5 97.5t-96.5 65.5t-118.5 23.5t-118.5 -23.5t-97.5 -65.5t-65.5 -97.5t-23.5 -118.5z" />
<glyph unicode="&#xd4;" d="M0 776q0 168 63.5 315.5t174 258t258 174t315.5 63.5t315.5 -63.5t257 -174t173 -258t63.5 -315.5q0 -166 -63.5 -313.5t-173 -258t-257 -174t-315.5 -63.5t-315.5 63.5t-258 174t-174 258t-63.5 313.5zM369 1743l352 313h176l354 -313l-112 -92l-328 204l-332 -204z M506 776q0 -63 23.5 -118.5t65.5 -96.5t97.5 -64.5t118.5 -23.5t118.5 23.5t96.5 64.5t64.5 96.5t23.5 118.5t-23.5 118.5t-64.5 97.5t-96.5 65.5t-118.5 23.5t-118.5 -23.5t-97.5 -65.5t-65.5 -97.5t-23.5 -118.5z" />
<glyph unicode="&#xd5;" d="M0 776q0 168 63.5 315.5t174 258t258 174t315.5 63.5t315.5 -63.5t257 -174t173 -258t63.5 -315.5q0 -166 -63.5 -313.5t-173 -258t-257 -174t-315.5 -63.5t-315.5 63.5t-258 174t-174 258t-63.5 313.5zM359 1774q10 39 32.5 77.5t58.5 69.5t82 50.5t101 19.5 q63 0 109.5 -12.5t85 -27t75.5 -26.5t84 -12q74 0 101 94l174 -86q-10 -39 -34 -78t-58.5 -70.5t-80.5 -51t-102 -19.5q-66 0 -107.5 12t-78.5 26.5t-75 27t-93 12.5q-31 0 -60.5 -18.5t-46.5 -71.5zM506 776q0 -63 23.5 -118.5t65.5 -96.5t97.5 -64.5t118.5 -23.5 t118.5 23.5t96.5 64.5t64.5 96.5t23.5 118.5t-23.5 118.5t-64.5 97.5t-96.5 65.5t-118.5 23.5t-118.5 -23.5t-97.5 -65.5t-65.5 -97.5t-23.5 -118.5z" />
<glyph unicode="&#xd6;" d="M0 776q0 168 63.5 315.5t174 258t258 174t315.5 63.5t315.5 -63.5t257 -174t173 -258t63.5 -315.5q0 -166 -63.5 -313.5t-173 -258t-257 -174t-315.5 -63.5t-315.5 63.5t-258 174t-174 258t-63.5 313.5zM412 1688v335h321v-335h-321zM506 776q0 -63 23.5 -118.5 t65.5 -96.5t97.5 -64.5t118.5 -23.5t118.5 23.5t96.5 64.5t64.5 96.5t23.5 118.5t-23.5 118.5t-64.5 97.5t-96.5 65.5t-118.5 23.5t-118.5 -23.5t-97.5 -65.5t-65.5 -97.5t-23.5 -118.5zM887 1688v335h321v-335h-321z" />
<glyph unicode="&#xd7;" horiz-adv-x="1107" d="M23 1042l223 209l299 -270l297 272l243 -223l-294 -268l288 -264l-227 -207l-291 262l-289 -262l-243 221l288 264z" />
<glyph unicode="&#xd8;" d="M0 776q0 168 63.5 315.5t174 258t258 174t315.5 63.5q78 0 150.5 -14t142.5 -41l51 108l119 -38l-57 -125q90 -53 164.5 -127t128 -164t82 -193.5t28.5 -216.5q0 -166 -63.5 -313.5t-173 -258t-257 -174t-315.5 -63.5q-137 0 -274 47l-54 -116l-121 41l60 129 q-94 51 -172 125.5t-133.5 166t-86 197t-30.5 219.5zM506 776q0 -78 34.5 -143.5t94.5 -106.5l254 543q-37 12 -78 12q-63 0 -118.5 -23.5t-97.5 -65.5t-65.5 -97.5t-23.5 -118.5zM752 477q14 -2 28.5 -3t30.5 -1q63 0 118.5 23.5t96.5 64.5t64.5 96.5t23.5 118.5 q0 72 -30.5 133.5t-82.5 102.5z" />
<glyph unicode="&#xd9;" horiz-adv-x="1376" d="M23 631v923h495v-923q0 -72 50 -119t120 -47q72 0 122 47t50 119v923h494v-923q0 -139 -52.5 -260t-142.5 -210t-212 -141.5t-259 -52.5q-139 0 -260 52.5t-211 141.5t-142 210t-52 260zM383 1855l145 201l467 -274l-105 -131z" />
<glyph unicode="&#xda;" horiz-adv-x="1376" d="M23 631v923h495v-923q0 -72 50 -119t120 -47q72 0 122 47t50 119v923h494v-923q0 -139 -52.5 -260t-142.5 -210t-212 -141.5t-259 -52.5q-139 0 -260 52.5t-211 141.5t-142 210t-52 260zM383 1782l464 274l148 -201l-510 -204z" />
<glyph unicode="&#xdb;" horiz-adv-x="1376" d="M23 631v923h495v-923q0 -72 50 -119t120 -47q72 0 122 47t50 119v923h494v-923q0 -139 -52.5 -260t-142.5 -210t-212 -141.5t-259 -52.5q-139 0 -260 52.5t-211 141.5t-142 210t-52 260zM246 1743l352 313h176l354 -313l-112 -92l-328 204l-332 -204z" />
<glyph unicode="&#xdc;" horiz-adv-x="1376" d="M23 631v923h495v-923q0 -72 50 -119t120 -47q72 0 122 47t50 119v923h494v-923q0 -139 -52.5 -260t-142.5 -210t-212 -141.5t-259 -52.5q-139 0 -260 52.5t-211 141.5t-142 210t-52 260zM289 1688v335h321v-335h-321zM764 1688v335h321v-335h-321z" />
<glyph unicode="&#xdd;" horiz-adv-x="1556" d="M0 1554h612l183 -426l184 426h577l-514 -1032v-522h-530v522zM472 1782l464 274l148 -201l-510 -204z" />
<glyph unicode="&#xde;" horiz-adv-x="1323" d="M23 0v1554h530v-178h235q123 0 221.5 -46t168 -126t107.5 -187.5t38 -228.5t-38 -228t-107.5 -187t-168 -126t-221.5 -46h-235v-201h-530zM553 659h139q53 0 90 38t37 91t-37 91.5t-90 38.5h-139v-259z" />
<glyph unicode="&#xdf;" horiz-adv-x="2779" d="M0 549h565q0 -35 14.5 -59.5t35 -40t43 -22.5t38.5 -7q31 0 54.5 11t40 27.5t25.5 36t9 37.5q0 31 -32.5 47.5t-86 26.5t-120 21.5t-133.5 29.5q-66 18 -137.5 47t-131 77t-98.5 117t-39 167q0 123 46 220t133 164t211 102.5t280 35.5q145 0 263 -37t202 -106.5 t131 -168.5t53 -224h-547q0 49 -27.5 86t-82.5 37q-43 0 -77 -26t-34 -67q0 -25 18.5 -44t59.5 -36.5t109.5 -34t166.5 -32.5q139 -25 225.5 -69t133.5 -103.5t63.5 -131t16.5 -151.5q0 -92 -38 -183t-121 -165t-212 -119t-311 -45q-184 0 -317.5 58.5t-219.5 145.5 t-128 189.5t-44 188.5zM1391 549h565q0 -35 14.5 -59.5t35 -40t43 -22.5t38.5 -7q31 0 54.5 11t40 27.5t25.5 36t9 37.5q0 31 -32.5 47.5t-86 26.5t-120 21.5t-133.5 29.5q-66 18 -137.5 47t-131 77t-98.5 117t-39 167q0 123 46 220t133 164t211 102.5t280 35.5 q145 0 263 -37t202 -106.5t131 -168.5t53 -224h-547q0 49 -27.5 86t-82.5 37q-43 0 -77 -26t-34 -67q0 -25 18.5 -44t59.5 -36.5t109.5 -34t166.5 -32.5q139 -25 225.5 -69t133.5 -103.5t63.5 -131t16.5 -151.5q0 -92 -38 -183t-121 -165t-212 -119t-311 -45 q-184 0 -317.5 58.5t-219.5 145.5t-128 189.5t-44 188.5z" />
<glyph unicode="&#xe0;" horiz-adv-x="1689" d="M0 0l498 1554h694l498 -1554h-613l-61 248h-379l-59 -248h-578zM537 1855l145 201l467 -274l-105 -131zM725 655h203l-101 383z" />
<glyph unicode="&#xe1;" horiz-adv-x="1689" d="M0 0l498 1554h694l498 -1554h-613l-61 248h-379l-59 -248h-578zM537 1782l464 274l148 -201l-510 -204zM725 655h203l-101 383z" />
<glyph unicode="&#xe2;" horiz-adv-x="1689" d="M0 0l498 1554h694l498 -1554h-613l-61 248h-379l-59 -248h-578zM402 1743l352 313h176l354 -313l-112 -92l-328 204l-332 -204zM725 655h203l-101 383z" />
<glyph unicode="&#xe3;" horiz-adv-x="1689" d="M0 0l498 1554h694l498 -1554h-613l-61 248h-379l-59 -248h-578zM394 1774q10 39 32.5 77.5t58.5 69.5t82 50.5t101 19.5q63 0 109.5 -12.5t85 -27t75.5 -26.5t84 -12q74 0 101 94l174 -86q-10 -39 -34 -78t-58.5 -70.5t-80.5 -51t-102 -19.5q-66 0 -107.5 12t-78.5 26.5 t-75 27t-93 12.5q-31 0 -60.5 -18.5t-46.5 -71.5zM725 655h203l-101 383z" />
<glyph unicode="&#xe4;" horiz-adv-x="1689" d="M0 0l498 1554h694l498 -1554h-613l-61 248h-379l-59 -248h-578zM447 1688v335h321v-335h-321zM725 655h203l-101 383zM922 1688v335h321v-335h-321z" />
<glyph unicode="&#xe5;" horiz-adv-x="1689" d="M0 0l498 1554h694l498 -1554h-613l-61 248h-379l-59 -248h-578zM517 1839q0 129 73.5 206t253.5 77t256 -77t76 -206q0 -131 -76 -208t-256 -77t-253.5 77t-73.5 208zM701 1839q0 -57 32.5 -91t110.5 -34q80 0 113 34t33 91q0 55 -33 89t-113 34q-78 0 -110.5 -34 t-32.5 -89zM725 655h203l-101 383z" />
<glyph unicode="&#xe6;" horiz-adv-x="2562" d="M0 0l498 1554h1249q168 0 316.5 -58t259 -162.5t175 -247t64.5 -310.5q0 -23 -1 -46t-3 -46h-1098q29 -98 98.5 -154.5t192.5 -56.5q72 0 126 18.5t77 57.5h575q-37 -127 -111.5 -233.5t-177 -183.5t-227.5 -121t-262 -44q-186 0 -344 76t-270 205h-500l-59 -248h-578z M725 655h225q-4 29 -6 59.5t-2 61.5q0 78 12.5 150.5t40.5 136.5h-170zM1491 936h520q-29 66 -92.5 105.5t-167.5 39.5t-163.5 -40t-96.5 -105z" />
<glyph unicode="&#xe7;" horiz-adv-x="1603" d="M0 776q0 168 63.5 315.5t174 258t258 174t315.5 63.5q145 0 276.5 -48t235.5 -134t178 -204t103 -255h-541q-41 61 -106.5 98t-145.5 37q-63 0 -118.5 -23.5t-97.5 -65.5t-65.5 -97t-23.5 -119q0 -63 23.5 -118.5t65.5 -96.5t97.5 -64.5t118.5 -23.5q80 0 145.5 37 t106.5 98h541q-27 -121 -87.5 -227.5t-147.5 -189t-195.5 -138t-231.5 -76.5l-137 -313h-203l70 316q-143 25 -266 96t-213.5 176.5t-141.5 240t-51 283.5z" />
<glyph unicode="&#xe8;" d="M0 776q0 168 63.5 315.5t174 258t258 174t315.5 63.5t315.5 -63.5t257 -174t173 -258t63.5 -315.5q0 -23 -1 -46t-3 -46h-1096q27 -98 97.5 -154.5t193.5 -56.5q70 0 124 18.5t77 57.5h575q-37 -127 -111.5 -233.5t-176 -184.5t-226.5 -121t-262 -43q-168 0 -315.5 63.5 t-258 174t-174 258t-63.5 313.5zM504 1855l145 201l467 -274l-105 -131zM551 936h518q-29 66 -91.5 105.5t-166.5 39.5t-163.5 -40t-96.5 -105z" />
<glyph unicode="&#xe9;" d="M0 776q0 168 63.5 315.5t174 258t258 174t315.5 63.5t315.5 -63.5t257 -174t173 -258t63.5 -315.5q0 -23 -1 -46t-3 -46h-1096q27 -98 97.5 -154.5t193.5 -56.5q70 0 124 18.5t77 57.5h575q-37 -127 -111.5 -233.5t-176 -184.5t-226.5 -121t-262 -43q-168 0 -315.5 63.5 t-258 174t-174 258t-63.5 313.5zM504 1782l464 274l148 -201l-510 -204zM551 936h518q-29 66 -91.5 105.5t-166.5 39.5t-163.5 -40t-96.5 -105z" />
<glyph unicode="&#xea;" d="M0 776q0 168 63.5 315.5t174 258t258 174t315.5 63.5t315.5 -63.5t257 -174t173 -258t63.5 -315.5q0 -23 -1 -46t-3 -46h-1096q27 -98 97.5 -154.5t193.5 -56.5q70 0 124 18.5t77 57.5h575q-37 -127 -111.5 -233.5t-176 -184.5t-226.5 -121t-262 -43q-168 0 -315.5 63.5 t-258 174t-174 258t-63.5 313.5zM369 1743l352 313h176l354 -313l-112 -92l-328 204l-332 -204zM551 936h518q-29 66 -91.5 105.5t-166.5 39.5t-163.5 -40t-96.5 -105z" />
<glyph unicode="&#xeb;" d="M0 776q0 168 63.5 315.5t174 258t258 174t315.5 63.5t315.5 -63.5t257 -174t173 -258t63.5 -315.5q0 -23 -1 -46t-3 -46h-1096q27 -98 97.5 -154.5t193.5 -56.5q70 0 124 18.5t77 57.5h575q-37 -127 -111.5 -233.5t-176 -184.5t-226.5 -121t-262 -43q-168 0 -315.5 63.5 t-258 174t-174 258t-63.5 313.5zM412 1688v335h321v-335h-321zM551 936h518q-29 66 -91.5 105.5t-166.5 39.5t-163.5 -40t-96.5 -105zM887 1688v335h321v-335h-321z" />
<glyph unicode="&#xec;" horiz-adv-x="575" d="M-16 1855l145 201l467 -274l-105 -131zM23 0v1554h530v-1554h-530z" />
<glyph unicode="&#xed;" horiz-adv-x="575" d="M-16 1782l464 274l148 -201l-510 -204zM23 0v1554h530v-1554h-530z" />
<glyph unicode="&#xee;" horiz-adv-x="575" d="M-151 1743l352 313h176l354 -313l-112 -92l-328 204l-332 -204zM23 0v1554h530v-1554h-530z" />
<glyph unicode="&#xef;" horiz-adv-x="575" d="M-108 1688v335h321v-335h-321zM23 0v1554h530v-1554h-530zM367 1688v335h321v-335h-321z" />
<glyph unicode="&#xf0;" horiz-adv-x="1472" d="M-57 657v248h102v649h647q162 0 304.5 -60t248 -165.5t167 -248t61.5 -304.5t-61.5 -303t-167 -246.5t-248 -166t-304.5 -60.5h-647v657h-102zM573 496h119q57 0 109.5 21.5t91.5 59t61.5 89t22.5 110.5t-22.5 110.5t-61.5 90.5t-91 60.5t-110 21.5h-119v-154h150v-248 h-150v-161z" />
<glyph unicode="&#xf1;" horiz-adv-x="1484" d="M23 0v1554h485l446 -677v677h508v-1554h-485l-447 698v-698h-507zM291 1774q10 39 32.5 77.5t58.5 69.5t82 50.5t101 19.5q63 0 109.5 -12.5t85 -27t75.5 -26.5t84 -12q74 0 101 94l174 -86q-10 -39 -34 -78t-58.5 -70.5t-80.5 -51t-102 -19.5q-66 0 -107.5 12 t-78.5 26.5t-75 27t-93 12.5q-31 0 -60.5 -18.5t-46.5 -71.5z" />
<glyph unicode="&#xf2;" d="M0 776q0 168 63.5 315.5t174 258t258 174t315.5 63.5t315.5 -63.5t257 -174t173 -258t63.5 -315.5q0 -166 -63.5 -313.5t-173 -258t-257 -174t-315.5 -63.5t-315.5 63.5t-258 174t-174 258t-63.5 313.5zM504 1855l145 201l467 -274l-105 -131zM506 776q0 -63 23.5 -118.5 t65.5 -96.5t97.5 -64.5t118.5 -23.5t118.5 23.5t96.5 64.5t64.5 96.5t23.5 118.5t-23.5 118.5t-64.5 97.5t-96.5 65.5t-118.5 23.5t-118.5 -23.5t-97.5 -65.5t-65.5 -97.5t-23.5 -118.5z" />
<glyph unicode="&#xf3;" d="M0 776q0 168 63.5 315.5t174 258t258 174t315.5 63.5t315.5 -63.5t257 -174t173 -258t63.5 -315.5q0 -166 -63.5 -313.5t-173 -258t-257 -174t-315.5 -63.5t-315.5 63.5t-258 174t-174 258t-63.5 313.5zM504 1782l464 274l148 -201l-510 -204zM506 776q0 -63 23.5 -118.5 t65.5 -96.5t97.5 -64.5t118.5 -23.5t118.5 23.5t96.5 64.5t64.5 96.5t23.5 118.5t-23.5 118.5t-64.5 97.5t-96.5 65.5t-118.5 23.5t-118.5 -23.5t-97.5 -65.5t-65.5 -97.5t-23.5 -118.5z" />
<glyph unicode="&#xf4;" d="M0 776q0 168 63.5 315.5t174 258t258 174t315.5 63.5t315.5 -63.5t257 -174t173 -258t63.5 -315.5q0 -166 -63.5 -313.5t-173 -258t-257 -174t-315.5 -63.5t-315.5 63.5t-258 174t-174 258t-63.5 313.5zM369 1743l352 313h176l354 -313l-112 -92l-328 204l-332 -204z M506 776q0 -63 23.5 -118.5t65.5 -96.5t97.5 -64.5t118.5 -23.5t118.5 23.5t96.5 64.5t64.5 96.5t23.5 118.5t-23.5 118.5t-64.5 97.5t-96.5 65.5t-118.5 23.5t-118.5 -23.5t-97.5 -65.5t-65.5 -97.5t-23.5 -118.5z" />
<glyph unicode="&#xf5;" d="M0 776q0 168 63.5 315.5t174 258t258 174t315.5 63.5t315.5 -63.5t257 -174t173 -258t63.5 -315.5q0 -166 -63.5 -313.5t-173 -258t-257 -174t-315.5 -63.5t-315.5 63.5t-258 174t-174 258t-63.5 313.5zM359 1774q10 39 32.5 77.5t58.5 69.5t82 50.5t101 19.5 q63 0 109.5 -12.5t85 -27t75.5 -26.5t84 -12q74 0 101 94l174 -86q-10 -39 -34 -78t-58.5 -70.5t-80.5 -51t-102 -19.5q-66 0 -107.5 12t-78.5 26.5t-75 27t-93 12.5q-31 0 -60.5 -18.5t-46.5 -71.5zM506 776q0 -63 23.5 -118.5t65.5 -96.5t97.5 -64.5t118.5 -23.5 t118.5 23.5t96.5 64.5t64.5 96.5t23.5 118.5t-23.5 118.5t-64.5 97.5t-96.5 65.5t-118.5 23.5t-118.5 -23.5t-97.5 -65.5t-65.5 -97.5t-23.5 -118.5z" />
<glyph unicode="&#xf6;" d="M0 776q0 168 63.5 315.5t174 258t258 174t315.5 63.5t315.5 -63.5t257 -174t173 -258t63.5 -315.5q0 -166 -63.5 -313.5t-173 -258t-257 -174t-315.5 -63.5t-315.5 63.5t-258 174t-174 258t-63.5 313.5zM412 1688v335h321v-335h-321zM506 776q0 -63 23.5 -118.5 t65.5 -96.5t97.5 -64.5t118.5 -23.5t118.5 23.5t96.5 64.5t64.5 96.5t23.5 118.5t-23.5 118.5t-64.5 97.5t-96.5 65.5t-118.5 23.5t-118.5 -23.5t-97.5 -65.5t-65.5 -97.5t-23.5 -118.5zM887 1688v335h321v-335h-321z" />
<glyph unicode="&#xf7;" horiz-adv-x="1220" d="M23 625v293h1175v-293h-1175zM451 125v354h335v-354h-335zM451 1067v356h335v-356h-335z" />
<glyph unicode="&#xf8;" d="M0 776q0 168 63.5 315.5t174 258t258 174t315.5 63.5q78 0 150.5 -14t142.5 -41l51 108l119 -38l-57 -125q90 -53 164.5 -127t128 -164t82 -193.5t28.5 -216.5q0 -166 -63.5 -313.5t-173 -258t-257 -174t-315.5 -63.5q-137 0 -274 47l-54 -116l-121 41l60 129 q-94 51 -172 125.5t-133.5 166t-86 197t-30.5 219.5zM506 776q0 -78 34.5 -143.5t94.5 -106.5l254 543q-37 12 -78 12q-63 0 -118.5 -23.5t-97.5 -65.5t-65.5 -97.5t-23.5 -118.5zM752 477q14 -2 28.5 -3t30.5 -1q63 0 118.5 23.5t96.5 64.5t64.5 96.5t23.5 118.5 q0 72 -30.5 133.5t-82.5 102.5z" />
<glyph unicode="&#xf9;" horiz-adv-x="1376" d="M23 631v923h495v-923q0 -72 50 -119t120 -47q72 0 122 47t50 119v923h494v-923q0 -139 -52.5 -260t-142.5 -210t-212 -141.5t-259 -52.5q-139 0 -260 52.5t-211 141.5t-142 210t-52 260zM383 1855l145 201l467 -274l-105 -131z" />
<glyph unicode="&#xfa;" horiz-adv-x="1376" d="M23 631v923h495v-923q0 -72 50 -119t120 -47q72 0 122 47t50 119v923h494v-923q0 -139 -52.5 -260t-142.5 -210t-212 -141.5t-259 -52.5q-139 0 -260 52.5t-211 141.5t-142 210t-52 260zM383 1782l464 274l148 -201l-510 -204z" />
<glyph unicode="&#xfb;" horiz-adv-x="1376" d="M23 631v923h495v-923q0 -72 50 -119t120 -47q72 0 122 47t50 119v923h494v-923q0 -139 -52.5 -260t-142.5 -210t-212 -141.5t-259 -52.5q-139 0 -260 52.5t-211 141.5t-142 210t-52 260zM246 1743l352 313h176l354 -313l-112 -92l-328 204l-332 -204z" />
<glyph unicode="&#xfc;" horiz-adv-x="1376" d="M23 631v923h495v-923q0 -72 50 -119t120 -47q72 0 122 47t50 119v923h494v-923q0 -139 -52.5 -260t-142.5 -210t-212 -141.5t-259 -52.5q-139 0 -260 52.5t-211 141.5t-142 210t-52 260zM289 1688v335h321v-335h-321zM764 1688v335h321v-335h-321z" />
<glyph unicode="&#xfd;" horiz-adv-x="1556" d="M0 1554h612l183 -426l184 426h577l-514 -1032v-522h-530v522zM472 1782l464 274l148 -201l-510 -204z" />
<glyph unicode="&#xfe;" horiz-adv-x="1323" d="M23 0v1554h530v-178h235q123 0 221.5 -46t168 -126t107.5 -187.5t38 -228.5t-38 -228t-107.5 -187t-168 -126t-221.5 -46h-235v-201h-530zM553 659h139q53 0 90 38t37 91t-37 91.5t-90 38.5h-139v-259z" />
<glyph unicode="&#xff;" horiz-adv-x="1556" d="M0 1554h612l183 -426l184 426h577l-514 -1032v-522h-530v522zM381 1688v335h321v-335h-321zM856 1688v335h321v-335h-321z" />
<glyph unicode="&#x141;" horiz-adv-x="980" d="M23 0v1554h528v-596l266 80v-219l-266 -80v-243h430v-496h-958z" />
<glyph unicode="&#x142;" horiz-adv-x="980" d="M23 0v1554h528v-596l266 80v-219l-266 -80v-243h430v-496h-958z" />
<glyph unicode="&#x152;" horiz-adv-x="2721" d="M0 776q0 168 63.5 315.5t174 258t258 174t315.5 63.5q160 0 299 -56t250 -161q111 104 251 160.5t300 56.5q168 0 315.5 -63.5t258 -174t174 -258t63.5 -315.5q0 -23 -1 -46t-3 -46h-1098q29 -98 98.5 -154.5t192.5 -56.5q72 0 126 18.5t77 57.5h575 q-37 -127 -111.5 -233.5t-177 -183.5t-227.5 -121t-262 -44q-160 0 -300.5 57.5t-250.5 157.5q-111 -100 -250 -157.5t-299 -57.5q-168 0 -315.5 63.5t-258 174t-174 258t-63.5 313.5zM506 776q0 -63 23.5 -118.5t65.5 -96.5t97.5 -64.5t118.5 -23.5t118.5 23.5t96.5 64.5 t64.5 96.5t23.5 118.5t-23.5 118.5t-64.5 97.5t-96.5 65.5t-118.5 23.5t-118.5 -23.5t-97.5 -65.5t-65.5 -97.5t-23.5 -118.5zM1651 936h520q-29 66 -92.5 105.5t-167.5 39.5t-163.5 -40t-96.5 -105z" />
<glyph unicode="&#x153;" horiz-adv-x="2721" d="M0 776q0 168 63.5 315.5t174 258t258 174t315.5 63.5q160 0 299 -56t250 -161q111 104 251 160.5t300 56.5q168 0 315.5 -63.5t258 -174t174 -258t63.5 -315.5q0 -23 -1 -46t-3 -46h-1098q29 -98 98.5 -154.5t192.5 -56.5q72 0 126 18.5t77 57.5h575 q-37 -127 -111.5 -233.5t-177 -183.5t-227.5 -121t-262 -44q-160 0 -300.5 57.5t-250.5 157.5q-111 -100 -250 -157.5t-299 -57.5q-168 0 -315.5 63.5t-258 174t-174 258t-63.5 313.5zM506 776q0 -63 23.5 -118.5t65.5 -96.5t97.5 -64.5t118.5 -23.5t118.5 23.5t96.5 64.5 t64.5 96.5t23.5 118.5t-23.5 118.5t-64.5 97.5t-96.5 65.5t-118.5 23.5t-118.5 -23.5t-97.5 -65.5t-65.5 -97.5t-23.5 -118.5zM1651 936h520q-29 66 -92.5 105.5t-167.5 39.5t-163.5 -40t-96.5 -105z" />
<glyph unicode="&#x160;" horiz-adv-x="1390" d="M0 549h565q0 -35 14.5 -59.5t35 -40t43 -22.5t38.5 -7q31 0 54.5 11t40 27.5t25.5 36t9 37.5q0 31 -32.5 47.5t-86 26.5t-120 21.5t-133.5 29.5q-66 18 -137.5 47t-131 77t-98.5 117t-39 167q0 123 46 220t133 164t211 102.5t280 35.5q145 0 263 -37t202 -106.5 t131 -168.5t53 -224h-547q0 49 -27.5 86t-82.5 37q-43 0 -77 -26t-34 -67q0 -25 18.5 -44t59.5 -36.5t109.5 -34t166.5 -32.5q139 -25 225.5 -69t133.5 -103.5t63.5 -131t16.5 -151.5q0 -92 -38 -183t-121 -165t-212 -119t-311 -45q-184 0 -317.5 58.5t-219.5 145.5 t-128 189.5t-44 188.5zM254 1964l110 92l332 -205l328 205l112 -92l-354 -313h-176z" />
<glyph unicode="&#x161;" horiz-adv-x="1390" d="M0 549h565q0 -35 14.5 -59.5t35 -40t43 -22.5t38.5 -7q31 0 54.5 11t40 27.5t25.5 36t9 37.5q0 31 -32.5 47.5t-86 26.5t-120 21.5t-133.5 29.5q-66 18 -137.5 47t-131 77t-98.5 117t-39 167q0 123 46 220t133 164t211 102.5t280 35.5q145 0 263 -37t202 -106.5 t131 -168.5t53 -224h-547q0 49 -27.5 86t-82.5 37q-43 0 -77 -26t-34 -67q0 -25 18.5 -44t59.5 -36.5t109.5 -34t166.5 -32.5q139 -25 225.5 -69t133.5 -103.5t63.5 -131t16.5 -151.5q0 -92 -38 -183t-121 -165t-212 -119t-311 -45q-184 0 -317.5 58.5t-219.5 145.5 t-128 189.5t-44 188.5zM254 1964l110 92l332 -205l328 205l112 -92l-354 -313h-176z" />
<glyph unicode="&#x178;" horiz-adv-x="1556" d="M0 1554h612l183 -426l184 426h577l-514 -1032v-522h-530v522zM381 1688v335h321v-335h-321zM856 1688v335h321v-335h-321z" />
<glyph unicode="&#x17d;" horiz-adv-x="1286" d="M14 0v385l547 674h-547v495h1256v-385l-549 -673h549v-496h-1256zM201 1964l110 92l332 -205l328 205l112 -92l-354 -313h-176z" />
<glyph unicode="&#x17e;" horiz-adv-x="1286" d="M14 0v385l547 674h-547v495h1256v-385l-549 -673h549v-496h-1256zM201 1964l110 92l332 -205l328 205l112 -92l-354 -313h-176z" />
<glyph unicode="&#x2c6;" horiz-adv-x="927" d="M23 1743l352 313h176l354 -313l-112 -92l-328 204l-332 -204z" />
<glyph unicode="&#x2da;" horiz-adv-x="704" d="M23 1839q0 129 73.5 206t253.5 77t256 -77t76 -206q0 -131 -76 -208t-256 -77t-253.5 77t-73.5 208zM207 1839q0 -57 32.5 -91t110.5 -34q80 0 113 34t33 91q0 55 -33 89t-113 34q-78 0 -110.5 -34t-32.5 -89z" />
<glyph unicode="&#x2dc;" horiz-adv-x="948" d="M23 1774q10 39 32.5 77.5t58.5 69.5t82 50.5t101 19.5q63 0 109.5 -12.5t85 -27t75.5 -26.5t84 -12q74 0 101 94l174 -86q-10 -39 -34 -78t-58.5 -70.5t-80.5 -51t-102 -19.5q-66 0 -107.5 12t-78.5 26.5t-75 27t-93 12.5q-31 0 -60.5 -18.5t-46.5 -71.5z" />
<glyph unicode="&#x2000;" horiz-adv-x="1061" />
<glyph unicode="&#x2001;" horiz-adv-x="2122" />
<glyph unicode="&#x2002;" horiz-adv-x="1061" />
<glyph unicode="&#x2003;" horiz-adv-x="2122" />
<glyph unicode="&#x2004;" horiz-adv-x="707" />
<glyph unicode="&#x2005;" horiz-adv-x="530" />
<glyph unicode="&#x2006;" horiz-adv-x="353" />
<glyph unicode="&#x2007;" horiz-adv-x="353" />
<glyph unicode="&#x2008;" horiz-adv-x="265" />
<glyph unicode="&#x2009;" horiz-adv-x="424" />
<glyph unicode="&#x200a;" horiz-adv-x="117" />
<glyph unicode="&#x2010;" horiz-adv-x="866" d="M23 635v293h821v-293h-821z" />
<glyph unicode="&#x2011;" horiz-adv-x="866" d="M23 635v293h821v-293h-821z" />
<glyph unicode="&#x2012;" horiz-adv-x="866" d="M23 635v293h821v-293h-821z" />
<glyph unicode="&#x2013;" horiz-adv-x="1538" d="M23 614v332h1493v-332h-1493z" />
<glyph unicode="&#x2014;" horiz-adv-x="2613" d="M23 614v332h2568v-332h-2568z" />
<glyph unicode="&#x2018;" horiz-adv-x="428" d="M0 1554h362l66 -708h-215z" />
<glyph unicode="&#x2019;" horiz-adv-x="428" d="M0 846l68 708h360l-213 -708h-215z" />
<glyph unicode="&#x201a;" horiz-adv-x="428" d="M0 -213l68 709h360l-213 -709h-215z" />
<glyph unicode="&#x201c;" horiz-adv-x="872" d="M0 1554h362l66 -708h-215zM444 1554h361l67 -708h-215z" />
<glyph unicode="&#x201d;" horiz-adv-x="872" d="M0 846l68 708h360l-213 -708h-215zM444 846l66 708h362l-213 -708h-215z" />
<glyph unicode="&#x201e;" horiz-adv-x="872" d="M0 -213l68 709h360l-213 -709h-215zM444 -213l66 709h362l-213 -709h-215z" />
<glyph unicode="&#x2020;" horiz-adv-x="1222" d="M23 1161v242h450v256h295v-256h432v-242h-432v-1194h-295v1194h-450z" />
<glyph unicode="&#x2021;" horiz-adv-x="1224" d="M23 221v246h450v694h-450v242h450v256h293v-256h438v-242h-438v-694h438v-246h-438v-254h-293v254h-450z" />
<glyph unicode="&#x2022;" horiz-adv-x="866" d="M20 778q0 86 32 162t87.5 131t130 88t160.5 33t162 -33t131 -88t88 -131t33 -162t-33 -160.5t-88 -130t-131 -87t-162 -31.5t-160.5 31.5t-130 87t-87.5 130t-32 160.5z" />
<glyph unicode="&#x2026;" horiz-adv-x="2621" d="M23 246q0 55 20 105t57 87t86.5 58.5t104.5 21.5t104 -21.5t86 -58.5t58.5 -87t21.5 -105t-21.5 -104.5t-58.5 -85.5t-86 -57.5t-104 -21.5t-104.5 21.5t-86.5 57.5t-57 85.5t-20 104.5zM1040 246q0 55 21.5 105t58.5 87t86 58.5t105 21.5q55 0 104 -21.5t86 -58.5 t58.5 -87t21.5 -105t-21.5 -104.5t-58.5 -85.5t-86 -57.5t-104 -21.5t-104.5 21.5t-86.5 57.5t-58.5 85.5t-21.5 104.5zM2060 246q0 55 20.5 105t57.5 87t86 58.5t105 21.5q55 0 104 -21.5t86 -58.5t58.5 -87t21.5 -105t-21.5 -104.5t-58.5 -85.5t-86 -57.5t-104 -21.5 t-104.5 21.5t-86.5 57.5t-57.5 85.5t-20.5 104.5z" />
<glyph unicode="&#x202f;" horiz-adv-x="424" />
<glyph unicode="&#x2030;" horiz-adv-x="2555" d="M23 1182q0 82 31.5 154.5t85 126t126 85t154.5 31.5t153.5 -31.5t125 -85t85 -126t31.5 -154.5t-31.5 -154t-85 -126t-125 -85t-153.5 -31t-154.5 31t-126 85t-85 126t-31.5 154zM166 0l1157 1556h283l-1155 -1556h-285zM270 1182q0 -61 43 -105.5t107 -44.5q61 0 105 44 t44 106q0 63 -44 105t-105 42q-63 0 -106.5 -42t-43.5 -105zM952 373q0 82 32 154.5t85 126t126 85t155 31.5q76 0 142.5 -26.5t118.5 -73.5t86 -110.5t44 -137.5q8 74 43 137.5t87 110.5t120.5 73.5t144.5 26.5q82 0 153.5 -31.5t125 -85t85 -126t31.5 -154.5t-31.5 -154 t-85 -126t-125 -85t-153.5 -31q-76 0 -144.5 27t-120.5 74t-87 109.5t-43 136.5q-10 -74 -44 -136.5t-86 -109.5t-119 -74t-142 -27q-82 0 -155 31t-126 85t-85 126t-32 154zM1200 373q0 -61 43 -105.5t107 -44.5q61 0 105 44t44 106q0 63 -44 106t-105 43q-63 0 -106.5 -43 t-43.5 -106zM1987 373q0 -61 43 -105.5t106 -44.5q61 0 104.5 44t43.5 106q0 63 -43 106t-105 43q-63 0 -106 -43t-43 -106z" />
<glyph unicode="&#x2039;" horiz-adv-x="600" d="M0 733l416 512l184 -155l-303 -357l303 -356l-182 -160z" />
<glyph unicode="&#x203a;" horiz-adv-x="598" d="M0 377l299 356l-299 357l184 155l414 -512l-418 -516z" />
<glyph unicode="&#x2044;" horiz-adv-x="536" d="M-535 -33l1307 1706h320l-1309 -1706h-318z" />
<glyph unicode="&#x205f;" horiz-adv-x="530" />
<glyph unicode="&#x20ac;" horiz-adv-x="1468" d="M-31 629l90 289h74q25 141 96.5 264t178 213t240.5 141t284 51q147 0 274 -46t232 -132l-334 -381q-37 25 -80 39t-92 14q-88 0 -161 -46t-109 -117h378l-211 -289h-163q41 -72 110.5 -114t155.5 -42q102 0 182 62l332 -385q-106 -86 -236.5 -134.5t-277.5 -48.5 t-280.5 50.5t-239 139.5t-178 209.5t-99.5 262.5h-166z" />
<glyph unicode="&#x2122;" horiz-adv-x="2318" d="M23 1251v303h690v-303h-195v-782h-295v782h-200zM854 469v1085h596l141 -839l133 839h572v-1085h-314v819l-165 -819h-461l-185 819v-819h-317z" />
<glyph unicode="&#x25fc;" horiz-adv-x="1556" d="M0 0v1556h1556v-1556h-1556z" />
</font>
</defs>
</svg>
